<svg id="레이어_1" data-name="레이어 1" xmlns="http://www.w3.org/2000/svg" viewBox="0 0 391.5 85.64"><defs><style>.cls-1{fill:#ccc;}.cls-2{fill:#bbecff;}</style></defs><path class="cls-1" d="M122.89,311.77H96a3.44,3.44,0,0,0,0,6.87h26.94a3.44,3.44,0,0,0,0-6.87Z" transform="translate(-45.89 -233)"/><path class="cls-1" d="M128.69,286.33H45.89v6.86h82.8a3.43,3.43,0,0,0,0-6.86Z" transform="translate(-45.89 -233)"/><path class="cls-1" d="M111.55,299.05H45.89v6.86h65.66a3.43,3.43,0,1,0,0-6.86Z" transform="translate(-45.89 -233)"/><path class="cls-1" d="M83.54,311.77H48.38a3.42,3.42,0,0,0-2.49,1.08v4.7a3.39,3.39,0,0,0,2.49,1.09H83.54a3.44,3.44,0,0,0,0-6.87Z" transform="translate(-45.89 -233)"/><path class="cls-1" d="M118,244a23.56,23.56,0,0,0-4.35-11H75.47a23.46,23.46,0,0,0-4.08,9.45h-.52a22.77,22.77,0,0,0-3.78.31A23.65,23.65,0,0,0,47.6,269.93c-.58.11-1.15.25-1.71.41v10.13h91.27A23.59,23.59,0,0,0,118,244Z" transform="translate(-45.89 -233)"/><path class="cls-2" d="M303.39,233v13a2.5,2.5,0,0,0,5,0V233Z" transform="translate(-45.89 -233)"/><path class="cls-2" d="M319.39,233v13a2.5,2.5,0,0,0,5,0V233Z" transform="translate(-45.89 -233)"/><path class="cls-2" d="M335.39,233v13a2.5,2.5,0,0,0,5,0V233Z" transform="translate(-45.89 -233)"/><path class="cls-2" d="M350.39,233v23a3.5,3.5,0,0,0,7,0V233Z" transform="translate(-45.89 -233)"/><path class="cls-2" d="M367.39,233v13a2.5,2.5,0,0,0,5,0V233Z" transform="translate(-45.89 -233)"/><path class="cls-2" d="M383.39,233v13a2.5,2.5,0,0,0,5,0V233Z" transform="translate(-45.89 -233)"/><path class="cls-2" d="M399.39,233v13a2.5,2.5,0,0,0,5,0V233Z" transform="translate(-45.89 -233)"/><path class="cls-2" d="M415.39,233v13a2.5,2.5,0,0,0,5,0V233Z" transform="translate(-45.89 -233)"/><path class="cls-2" d="M430.39,233v23a3.5,3.5,0,0,0,7,0V233Z" transform="translate(-45.89 -233)"/></svg>