<?xml version="1.0" encoding="utf-8"?>
<!-- Generator: Adobe Illustrator 25.2.1, SVG Export Plug-In . SVG Version: 6.00 Build 0)  -->
<svg version="1.1" id="레이어_1" xmlns="http://www.w3.org/2000/svg" xmlns:xlink="http://www.w3.org/1999/xlink" x="0px"
	 y="0px" viewBox="0 0 411.4 211.9" style="enable-background:new 0 0 411.4 211.9;" xml:space="preserve">
<style type="text/css">
	.st0{fill:#E9FFFF;}
</style>
<path class="st0" d="M44.5,124.6c2.6,0.9,5.4,0.7,7.8-0.6c2.4-1.2,4.2-3.4,5-6c5.1-16.9,16.4-30.8,32-39.2
	c15.6-8.4,33.4-10.2,50.4-5.1c11.7,3.5,22.1,10.2,30.1,19.1c0,0.1,0.1,0.1,0.1,0.2c1.1,1.3,2.2,2.6,3.2,3.9c0,0.1,0.1,0.1,0.1,0.2
	c0.5,0.6,0.9,1.2,1.3,1.8c0.2,0.3,0.4,0.5,0.5,0.8c0.4,0.5,0.7,1.1,1.1,1.6c0.5,0.8,1,1.5,1.4,2.3c0.2,0.3,0.4,0.7,0.6,1
	c0.4,0.6,0.7,1.3,1,1.9c0.2,0.3,0.3,0.6,0.5,0.9c0.5,0.9,0.9,1.9,1.4,2.9c1.9,4.3,6.5,6.7,11,5.8c1.4-0.3,2.7-0.4,4.1-0.4
	c0,0,0,0,0,0c11.2,0,20.6,8.3,22.2,19.1c0.2,1.1,0.3,2.3,0.3,3.4v1c0,4.6,3.2,8.6,7.6,9.7c1.1,0.3,2.1,0.5,3.1,0.8
	c0.4,0.1,0.8,0.3,1.2,0.4c0.6,0.2,1.2,0.4,1.8,0.6c0.5,0.2,1,0.4,1.6,0.6c0.5,0.2,0.9,0.3,1.4,0.5c0.6,0.2,1.2,0.5,1.7,0.7
	c0.4,0.2,0.7,0.3,1.1,0.5c0.6,0.3,1.3,0.6,1.9,0.9c0.3,0.1,0.6,0.3,0.8,0.4c0.7,0.3,1.3,0.7,2,1.1c0.2,0.1,0.4,0.2,0.6,0.4
	c0.7,0.4,1.4,0.8,2.1,1.2c0.1,0.1,0.3,0.2,0.4,0.3c0.7,0.5,1.5,1,2.2,1.4c0,0,0.1,0.1,0.1,0.1c5.6,3.9,10.5,8.5,14.6,13.8
	c0.1,0.1,0.2,0.2,0.3,0.3c0.5,0.6,0.9,1.2,1.4,1.8c0.2,0.2,0.3,0.4,0.5,0.7c0.4,0.6,0.8,1.1,1.1,1.7c0.2,0.3,0.4,0.6,0.6,0.9
	c0.3,0.5,0.6,1,1,1.6c0.2,0.4,0.4,0.7,0.6,1.1c0.3,0.5,0.5,1,0.8,1.5c0.2,0.4,0.5,0.9,0.7,1.3c0.2,0.5,0.5,0.9,0.7,1.4
	c0.2,0.5,0.5,1,0.7,1.5c0.2,0.4,0.4,0.8,0.6,1.3c0.2,0.5,0.4,1.1,0.7,1.7c0.2,0.4,0.3,0.8,0.5,1.2c0.2,0.6,0.4,1.2,0.6,1.9
	c0.1,0.4,0.2,0.7,0.4,1.1c0.2,0.7,0.4,1.4,0.6,2.1c0.1,0.3,0.2,0.6,0.2,0.9c0.3,1,0.5,2,0.7,3c0.1,0.5,0.2,1,0.3,1.5
	c0.1,0.5,0.2,1,0.3,1.5c0.1,0.7,0.2,1.3,0.3,2c0,0.3,0.1,0.7,0.1,1c0.1,0.7,0.2,1.5,0.2,2.2c0,0.3,0.1,0.5,0.1,0.8
	c0.1,0.8,0.1,1.6,0.1,2.4c0,0.2,0,0.4,0,0.6c0,0,0,0.1,0,0.1h20c0-0.2,0-0.4,0-0.6c0-0.9-0.1-1.8-0.1-2.7c0-0.3,0-0.6-0.1-0.9
	c-0.1-1.8-0.3-3.6-0.5-5.4c0-0.2,0-0.3-0.1-0.5c-0.1-0.6-0.2-1.2-0.3-1.8c-0.1-0.6-0.2-1.2-0.3-1.8c-0.1-0.6-0.2-1.1-0.3-1.7
	c-0.1-0.7-0.3-1.3-0.4-2c-0.1-0.5-0.2-1.1-0.4-1.6c-0.2-0.7-0.4-1.4-0.5-2.1c-0.1-0.5-0.3-1-0.4-1.4c-0.2-0.8-0.5-1.6-0.7-2.3
	c-0.1-0.4-0.2-0.8-0.4-1.1c-0.4-1.1-0.8-2.2-1.2-3.3c-0.2-0.4-0.3-0.8-0.5-1.2c-0.3-0.7-0.6-1.4-0.9-2.1c-0.2-0.5-0.5-1-0.7-1.6
	c-0.3-0.6-0.5-1.1-0.8-1.7c-0.3-0.6-0.6-1.1-0.8-1.7c-0.2-0.5-0.5-0.9-0.7-1.4c-0.3-0.6-0.7-1.2-1-1.8c-0.2-0.3-0.4-0.7-0.6-1
	c-1.5-2.5-3.1-5-4.8-7.4c0,0,0,0-0.1-0.1c-0.6-0.8-1.2-1.6-1.8-2.4c-0.1-0.1-0.2-0.2-0.2-0.3c-0.6-0.8-1.3-1.6-1.9-2.4
	c0,0-0.1-0.1-0.1-0.1c-6.9-8.1-15.4-14.9-25-20.1c-0.2-0.1-0.4-0.2-0.7-0.4c-0.7-0.4-1.5-0.7-2.2-1.1c-0.4-0.2-0.8-0.4-1.2-0.6
	c-0.7-0.3-1.3-0.6-2-0.9c-0.5-0.2-1.1-0.4-1.6-0.7c-0.6-0.2-1.2-0.5-1.8-0.7c-0.9-0.4-1.8-0.7-2.8-1c-0.2-0.1-0.4-0.2-0.7-0.2
	c-0.4-2.5-1-5-1.8-7.4c-4.8-13.6-16.3-24.1-30.5-27.4c-3.1-0.7-6.3-1.1-9.6-1.1c-0.1,0-0.1,0-0.2,0c-0.1-0.2-0.2-0.4-0.4-0.6
	c-0.5-0.8-0.9-1.6-1.4-2.5c-0.3-0.6-0.7-1.1-1-1.6c-0.2-0.2-0.3-0.5-0.4-0.7c8.8-2.7,18.2-2.7,27.1-0.1
	c13.1,3.9,23.8,13.4,29.4,25.9c1.9,4.3,6.5,6.7,11.1,5.8c0.9-0.2,1.7-0.2,2.6-0.2c7.9,0,14.3,6.4,14.3,14.3v0.8
	c0,4.6,3.2,8.6,7.6,9.7c12.2,3,22.4,10.5,28.9,21.2c6.5,10.7,8.5,23.3,5.5,35.4c-0.7,2.9-1.7,5.8-3,8.5h21.3
	c0.4-1.3,0.7-2.5,1.1-3.8c4.2-17.3,1.4-35.3-7.9-50.5c-8-13.2-20-23-34.3-28.1c-3.1-15.2-16.3-26.7-32.2-27.4
	C256,86.9,242.2,76,225.8,71c-15.4-4.6-31.9-3.5-46.5,3c-9.6-8.9-21.1-15.6-33.9-19.5c-22-6.6-45.3-4.3-65.6,6.6
	c-17.4,9.3-30.7,24-38.3,41.8c-13.7-3.1-27.8-2.9-41.5,0.4v20.7C14.6,119.5,30,119.7,44.5,124.6z"/>
</svg>
