<svg id="레이어_1" data-name="레이어 1" xmlns="http://www.w3.org/2000/svg" viewBox="0 0 383.88 342.59"><defs><style>.cls-1{fill:#9dc9ff;}</style></defs><path class="cls-1" d="M339.94,241.57a20,20,0,0,0-28.28-28.28l-10.32,10.33c-73.71-61.9-179.51-72.17-264.07-23.68a20,20,0,0,0,8.12,37.27,69.86,69.86,0,0,1,63.16,63.16,20,20,0,0,0,19.92,18.17h.09a105.5,105.5,0,0,1,59.57,18.28L41.84,483.12A16.15,16.15,0,0,1,19,460.27,20,20,0,0,0,0,426.88V512H69.51l0,0,.2-.18L216.41,365.1a105.39,105.39,0,0,1,18.3,59.68,20,20,0,0,0,18.2,19.92,69.68,69.68,0,0,1,43,20.15l0,0a69.62,69.62,0,0,1,20.15,43,20.36,20.36,0,0,0,.84,4.15h38.67c46-83.93,35.05-187.59-25.93-260.11ZM101.26,216.26a192.46,192.46,0,0,1,123.91,7.51l-.55.15c-26.44,7.29-55.11,21.29-84.06,41A110.14,110.14,0,0,0,101.26,216.26ZM231.93,321.4a145.85,145.85,0,0,0-52.6-33.82c51.16-30.63,92.77-36.12,107.6-21.28s9.36,56.46-21.27,107.61A145.71,145.71,0,0,0,231.93,321.4ZM337,452a110,110,0,0,0-48.66-39.31c19.68-29,33.68-57.62,41-84.07l.17-.62A192.26,192.26,0,0,1,337,452Z" transform="translate(0 -169.41)"/></svg>