<svg id="레이어_1" data-name="레이어 1" xmlns="http://www.w3.org/2000/svg" viewBox="0 0 334.73 343.8"><defs><style>.cls-1{fill:#fff;}</style></defs><path class="cls-1" d="M331,0H291.19L264,15.71,268.19,0H247.48l-8,29.86L176.07,66.47l11.59-43.22a10,10,0,0,0-2.14-9.18,10.44,10.44,0,0,0-1.24-1.52,10,10,0,0,0-14.14,0L137.5,45.19V0h-20V44.19L85.86,12.55A10,10,0,0,0,76.93,9.8a10.13,10.13,0,0,0-2,.33,10,10,0,0,0-7.07,12.24L79.78,67,15.5,29.85,7.51,0H0V48.65l5.51-1.47L68.92,83.79,25.7,95.37a10,10,0,0,0-6.88,6.42,10.21,10.21,0,0,0-.69,1.85,10,10,0,0,0,7.07,12.25l44.58,11.94L5.51,164.94,0,163.46v76.67l15.5-57.87,63.42-36.61L67.34,188.87a10,10,0,0,0,2.14,9.18,9.75,9.75,0,0,0,1.24,1.51,10,10,0,0,0,14.14,0l32.64-32.64v74.22L71.22,287.42a10,10,0,1,0,14.14,14.15l32.14-32.14V333.8a10,10,0,0,0,20,0V269.43l32.14,32.14a10,10,0,0,0,14.14-14.15L137.5,241.14V167.92l31.64,31.64a10,10,0,0,0,7.07,2.93,9.54,9.54,0,0,0,2-.21,10.3,10.3,0,0,0,1.89-.29,10,10,0,0,0,7.07-12.25l-12-44.59,64.28,37.11,17,63.22a10,10,0,0,0,9.65,7.42,10.15,10.15,0,0,0,2.6-.34,10,10,0,0,0,7.07-12.25L264,196.4l55.75,32.19a10,10,0,1,0,10-17.32L274,179.08l43.91-11.76A10,10,0,1,0,312.71,148l-63.23,16.94-63.41-36.61,43.22-11.58a10,10,0,0,0,6.89-6.46,10.69,10.69,0,0,0,.69-1.82,10,10,0,0,0-7.08-12.24l-44.58-12,64.27-37.1,63.23,16.94a10.13,10.13,0,0,0,2.59.34,10,10,0,0,0,2.58-19.66L274,33,329.73.85A12,12,0,0,0,331,0ZM64.44,105.69l29-7.76,14.08,8.13-13.22,7.63Zm53.06,32.94L95.65,160.48l7.76-29,14.09-8.13Zm0-49.89L104.27,81.1l-8-29.84L117.5,72.48Zm20-15.26,21.84-21.84-7.77,29L137.5,88.74Zm0,66.15V123.38L150.71,131l8,29.84Zm53.05-33.21-29,7.76-14.07-8.12,13.21-7.63Z"/></svg>