<svg id="레이어_1" data-name="레이어 1" xmlns="http://www.w3.org/2000/svg" viewBox="0 0 717 714"><defs><style>.cls-1{fill:none;stroke:#fcc;stroke-linecap:round;stroke-miterlimit:10;stroke-width:40px;}.cls-2{fill:#fcc;}</style></defs><path class="cls-1" d="M412,58.21c27.5,0,27.5,20,55,20s27.5-20,55-20,27.5,20,55,20,27.5-20,55-20,27.5,20,55,20" transform="translate(10 10)"/><path class="cls-1" d="M81.21,409c0,27.5-20,27.5-20,55s20,27.5,20,55-20,27.5-20,55,20,27.5,20,55-20,27.5-20,55" transform="translate(10 10)"/><path class="cls-1" d="M250.27,358.34c13.74,23.82-3.58,33.82,10.17,57.63s31.07,13.82,44.82,37.63-3.57,33.82,10.18,57.63,31.07,13.82,44.82,37.63-3.57,33.82,10.19,57.64" transform="translate(10 10)"/><path class="cls-1" d="M371.34,230c23.82,13.69,13.82,31,37.66,44.76s33.82-3.57,57.63,10.18,13.82,31.07,37.63,44.82,33.82-3.57,57.63,10.18S575.68,371,599.5,384.77" transform="translate(10 10)"/><path class="cls-2" d="M71.07,334.43A267.23,267.23,0,0,1-2.76,324L-10,322V269.07l13.15,4.37a214.74,214.74,0,0,0,67.87,11h.18c119.23,0,216.22-97,216.22-216.21A214.86,214.86,0,0,0,277.37,3l-4.13-13h52.69l2,7.37a267.86,267.86,0,0,1,9.44,70.91,264.48,264.48,0,0,1-77.95,188.24A264.52,264.52,0,0,1,72,334.43Z" transform="translate(10 10)"/><path class="cls-2" d="M286.9,0a225.19,225.19,0,0,1,10.52,68.21c0,124.73-101.48,226.21-226.21,226.21A225.28,225.28,0,0,1,0,282.93v31.5a257.52,257.52,0,0,0,71.21,10,254.53,254.53,0,0,0,181.17-75,254.53,254.53,0,0,0,75-181.17A257.56,257.56,0,0,0,318.29,0Z" transform="translate(10 10)"/></svg>