<svg id="레이어_1" data-name="레이어 1" xmlns="http://www.w3.org/2000/svg" viewBox="0 0 16 16"><defs><style>.cls-1{fill:#fff;}.cls-2{fill:none;stroke:#fff;stroke-linecap:round;stroke-miterlimit:10;stroke-width:0.5px;}</style></defs><rect x="1.38" y="1.38" width="13.25" height="13.25"/><path class="cls-1" d="M9.23,8.09A1.49,1.49,0,0,0,9,7.51a1.09,1.09,0,0,0-.87-.35,1.15,1.15,0,0,0-.86.36A2.12,2.12,0,0,0,6.78,9a2.39,2.39,0,0,0,.3,1.27,1.12,1.12,0,0,0,1,.56,1.08,1.08,0,0,0,.74-.26,1.36,1.36,0,0,0,.4-.76h1.1a2.54,2.54,0,0,1-.73,1.43,2.14,2.14,0,0,1-1.54.57,2.18,2.18,0,0,1-1.72-.72A3.07,3.07,0,0,1,5.67,9,3,3,0,0,1,6.36,6.9a2.18,2.18,0,0,1,1.71-.72,2.25,2.25,0,0,1,1.69.65,2,2,0,0,1,.57,1.26Z"/><path class="cls-2" d="M9.31,5.38V3.81a1.31,1.31,0,0,0-2.62,0V5.38a3.86,3.86,0,1,0,2.62,0Z"/><line class="cls-2" x1="6.86" y1="4.36" x2="7.86" y2="4.36"/></svg>