<svg id="레이어_1" data-name="레이어 1" xmlns="http://www.w3.org/2000/svg" viewBox="0 0 441.86 272.59"><defs><style>.cls-1{fill:#fdda6f;}.cls-2{fill:#fff;}</style></defs><circle class="cls-1" cx="214.18" cy="136.3" r="136.3"/><path class="cls-2" d="M181,284.78a46,46,0,0,0-15,2.53,45.92,45.92,0,0,0-88.31,24.93,45.83,45.83,0,0,0-10.5,24.12c-13.46,2-23.18,5.91-25.29,10.49H224a45.93,45.93,0,0,0-43-62.07Z" transform="translate(-41.82 -119.7)"/><path class="cls-2" d="M457.87,257.61a46,46,0,0,0-45.3-53.5c-.35,0-.69,0-1,0a45.92,45.92,0,0,0-90.69,3,45.91,45.91,0,0,0-37.34,71H483.67A34.83,34.83,0,0,0,457.87,257.61Z" transform="translate(-41.82 -119.7)"/></svg>