<?xml version="1.0" encoding="utf-8"?>
<!-- Generator: Adobe Illustrator 25.2.1, SVG Export Plug-In . SVG Version: 6.00 Build 0)  -->
<svg version="1.1" id="레이어_1" xmlns="http://www.w3.org/2000/svg" xmlns:xlink="http://www.w3.org/1999/xlink" x="0px"
	 y="0px" viewBox="0 0 441.8 383.4" style="enable-background:new 0 0 441.8 383.4;" xml:space="preserve">
<style type="text/css">
	.st0{fill:#EBE7B8;}
	.st1{fill:#FFFFFF;}
</style>
<path class="st0" d="M410.8,282.2L410.8,282.2h-2C302.9,282.2,217,196.3,217,90.3c0-30.5,7.2-60.5,21.1-87.6c0-0.1,0.1-0.2,0.2-0.4
	c1.2-2.1-0.7-2.4-1.8-2.4C135.3,4.8,54.6,88,53.9,190.3c-0.7,105.3,84.6,192.1,190,193.1c70.4,0.7,135.5-37.2,169.6-98.8
	C415.1,281.8,410.8,282.2,410.8,282.2z"/>
<path class="st1" d="M139.1,259.7c-5.1,0-10.2,0.9-15,2.5c-7.9-24.1-33.8-37.2-57.9-29.3c-22.7,7.4-35.9,31-30.4,54.3
	c-5.8,6.8-9.4,15.2-10.5,24.1c-13.5,2-23.2,5.9-25.3,10.5h182.1c8.9-23.7-3.1-50.2-26.9-59.1C150.1,260.7,144.6,259.7,139.1,259.7
	L139.1,259.7z"/>
<path class="st1" d="M416,232.6c4.1-25.1-12.8-48.7-37.9-52.9c-2.5-0.4-4.9-0.6-7.4-0.6h-1c-4.7-24.9-28.8-41.3-53.7-36.5
	c-19.6,3.7-34.6,19.7-37,39.5c-25.4,0.6-45.4,21.7-44.8,47c0.2,8.5,2.8,16.8,7.4,24h200.1C437.1,242.3,427.5,234.6,416,232.6z"/>
</svg>
