<svg id="레이어_1" data-name="레이어 1" xmlns="http://www.w3.org/2000/svg" viewBox="0 0 293.33 433.33"><defs><style>.cls-1,.cls-2,.cls-4{fill:none;}.cls-1{stroke:#36f;stroke-width:40px;}.cls-1,.cls-2{stroke-linecap:round;stroke-linejoin:round;}.cls-2{stroke:#fff;stroke-width:30px;}.cls-3{fill:#fff;}.cls-4{stroke:#000;stroke-miterlimit:10;stroke-width:10px;}</style></defs><path class="cls-1" d="M92.1,311.53" transform="translate(-109.33 -39.83)"/><path class="cls-2" d="M387.67,326.5a131.67,131.67,0,0,1-263.34,0C124.33,197.83,256,54.83,256,54.83S387.67,197.83,387.67,326.5Z" transform="translate(-109.33 -39.83)"/><path class="cls-2" d="M387.67,326.5a131.67,131.67,0,0,1-263.34,0C124.33,197.83,256,54.83,256,54.83S387.67,197.83,387.67,326.5Z" transform="translate(-109.33 -39.83)"/><path class="cls-3" d="M331.88,249.73c-11.29,14.69-35.46,33-77.57,7.17-44-26.92-68.91-5.67-79.82,9.31-6.72,21.7-10.16,41.93-10.16,60.29a91.67,91.67,0,0,0,183.34,0C347.67,303.57,342.3,277.71,331.88,249.73Z" transform="translate(-109.33 -39.83)"/><path class="cls-4" d="M256.5,259.22" transform="translate(-109.33 -39.83)"/></svg>