<?xml version="1.0" encoding="utf-8"?>
<!-- Generator: Adobe Illustrator 25.2.1, SVG Export Plug-In . SVG Version: 6.00 Build 0)  -->
<svg version="1.1" id="레이어_1" xmlns="http://www.w3.org/2000/svg" xmlns:xlink="http://www.w3.org/1999/xlink" x="0px"
	 y="0px" viewBox="0 0 347.1 306" style="enable-background:new 0 0 347.1 306;" xml:space="preserve">
<style type="text/css">
	.st0{fill:#333333;}
	.st1{fill:none;stroke:#A2DBFF;stroke-width:25;stroke-linecap:round;stroke-miterlimit:10;}
	.st2{fill:#FFFF67;}
</style>
<path class="st0" d="M0,196.9h341.3c18.2-50.7-8.1-106.6-58.8-124.8l-1.2-0.4c-7.6-46.5-51.4-78.1-97.9-70.5
	c-33.3,5.4-60.3,29.9-68.8,62.5c-19.3,6.2-33.6,22.6-37.2,42.6c-26.7,15.1-43.2,43.5-43.2,74.2c0,0.9,0,1.8,0.1,2.6
	C21.6,183.9,9.6,188.7,0,196.9z"/>
<line class="st1" x1="298.3" y1="188.5" x2="264.6" y2="293.5"/>
<line class="st1" x1="259.9" y1="158.6" x2="244.2" y2="207.1"/>
<line class="st1" x1="232.2" y1="243.9" x2="216.2" y2="293.5"/>
<line class="st1" x1="174.4" y1="273.6" x2="168.3" y2="293.5"/>
<line class="st1" x1="206.6" y1="174.5" x2="185.4" y2="239.7"/>
<path class="st2" d="M160.6,153.4c1.6,0,2.9,1.3,2.9,2.9c0,0.6-0.2,1.2-0.6,1.7l-37.7,51.9c-0.9,1.3-0.7,3.1,0.6,4
	c0.5,0.4,1.1,0.6,1.7,0.6H150c1.6,0,2.9,1.3,2.8,2.9c0,0.7-0.3,1.5-0.8,2l-82,82c-1.1,1.1-2.9,1.2-4.1,0c-0.9-0.9-1.1-2.3-0.5-3.4
	l19.5-36.5c0.7-1.4,0.2-3.1-1.2-3.9c-0.4-0.2-0.9-0.3-1.3-0.3H71.9c-1.6,0-2.9-1.3-2.9-2.9c0-0.4,0.1-0.7,0.2-1l38.7-98.1
	c0.4-1.1,1.5-1.8,2.7-1.8L160.6,153.4z"/>
</svg>
