<svg id="레이어_1" data-name="레이어 1" xmlns="http://www.w3.org/2000/svg" viewBox="0 0 347.11 306.01"><defs><style>.cls-1{fill:#595959;}.cls-2{fill:none;stroke:#a2dbff;stroke-linecap:round;stroke-miterlimit:10;stroke-width:25px;}.cls-3{fill:#ffff67;}</style></defs><path class="cls-1" d="M0,196.89H341.32A97.57,97.57,0,0,0,282.51,72.08l-1.19-.42a85.34,85.34,0,0,0-166.77-8,54.88,54.88,0,0,0-37.19,42.58,85.25,85.25,0,0,0-43.23,74.21c0,.88,0,1.75.06,2.62A58.36,58.36,0,0,0,0,196.89Z" transform="translate(0.01 0)"/><line class="cls-2" x1="298.33" y1="188.54" x2="264.56" y2="293.51"/><line class="cls-2" x1="259.89" y1="158.58" x2="244.16" y2="207.1"/><line class="cls-2" x1="232.24" y1="243.9" x2="216.22" y2="293.51"/><line class="cls-2" x1="174.44" y1="273.57" x2="168.26" y2="293.51"/><line class="cls-2" x1="206.57" y1="174.47" x2="185.41" y2="239.72"/><path class="cls-3" d="M160.59,153.38a2.87,2.87,0,0,1,2.32,4.57l-37.75,51.88a2.87,2.87,0,0,0,2.33,4.56H150a2.88,2.88,0,0,1,2,4.91L70,301.35A2.88,2.88,0,0,1,65.39,298l19.49-36.54a2.88,2.88,0,0,0-2.54-4.23H71.87a2.88,2.88,0,0,1-2.68-3.93l38.65-98.08a2.86,2.86,0,0,1,2.67-1.82Z" transform="translate(0.01 0)"/></svg>