<svg id="레이어_1" data-name="레이어 1" xmlns="http://www.w3.org/2000/svg" viewBox="0 0 366.89 490.64"><defs><style>.cls-1{fill:#fff;}</style></defs><path class="cls-1" d="M256,51.92c73.58,0,133.44,59.87,133.44,133.45a132,132,0,0,1-13.87,59.28c-.14.31-.3.62-.46.93-1.57,3.1-3.27,6.16-5.06,9.1L270.14,434.25a16.19,16.19,0,0,1-28.28,0L142,254.68c-1.79-2.94-3.49-6-5.06-9.1-.16-.31-.32-.62-.47-.93a132.13,132.13,0,0,1-13.86-59.28c0-73.58,59.86-133.45,133.44-133.45m0-50c-101.15,0-183.44,82.3-183.44,183.45a181.71,181.71,0,0,0,18.85,81.05c.35.73.72,1.47,1.1,2.19,1.93,3.79,4,7.54,6.19,11.16l99.47,178.79a66.18,66.18,0,0,0,115.66,0L413.3,279.78c2.18-3.63,4.26-7.38,6.19-11.17.38-.72.75-1.46,1.11-2.21a181.72,181.72,0,0,0,18.84-81C439.44,84.22,357.15,1.92,256,1.92Z" transform="translate(-72.56 -1.92)"/><path class="cls-1" d="M256,143.89a39.89,39.89,0,1,1-39.89,39.89A39.94,39.94,0,0,1,256,143.89m0-50a89.89,89.89,0,1,0,89.89,89.89A89.89,89.89,0,0,0,256,93.89Z" transform="translate(-72.56 -1.92)"/></svg>