<?xml version="1.0" encoding="utf-8"?>
<!-- Generator: Adobe Illustrator 25.2.1, SVG Export Plug-In . SVG Version: 6.00 Build 0)  -->
<svg version="1.1" id="레이어_1" xmlns="http://www.w3.org/2000/svg" xmlns:xlink="http://www.w3.org/1999/xlink" x="0px"
	 y="0px" viewBox="0 0 396.1 302" style="enable-background:new 0 0 396.1 302;" xml:space="preserve">
<style type="text/css">
	.st0{fill:#CCCCCC;}
	.st1{fill:#FFFFFF;}
</style>
<path class="st0" d="M169.6,297.8c20.8-30.8,21.2-71,1-102.2c4.8-5.4,8.6-11.5,11.4-18.1c1.6,0.1,3.2,0.1,4.8,0.1
	c49.1,0,88.8-39.8,88.8-88.8c0-49.1-39.8-88.8-88.8-88.8C137.7,0,98,39.8,98,88.8c0,1.9,0.1,3.9,0.2,5.8
	c-23.5,10-38.8,33.1-38.8,58.6c0,2.1,0.1,4.1,0.3,6.1c-47.9,18.3-71.9,71.9-53.6,119.8c2.5,6.6,5.8,12.9,9.7,18.7H169.6z"/>
<path class="st1" d="M364,216c12.5-35.1,0.8-74.2-28.8-96.8c0-0.4,0-0.7,0-1.1c0-54.8-44.5-99.2-99.3-99.2
	c-54.8,0-99.2,44.5-99.2,99.3c0,6.6,0.7,13.3,2,19.8c-54.7,4.5-95.3,52.5-90.8,107.1c0.8,9.4,2.9,18.7,6.3,27.5
	c-9.1,0.5-16.5,7.4-17.7,16.4h-0.2c-13.2,0-26,4.5-36.2,12.8h395.3c0.6-4.3,0.8-8.5,0.8-12.8C396.1,261.3,384.5,234.8,364,216z"/>
</svg>
