<svg id="레이어_1" data-name="레이어 1" xmlns="http://www.w3.org/2000/svg" viewBox="0 0 391.31 253.13"><defs><style>.cls-1{fill:#fdda6f;}.cls-2{fill:#fff;}</style></defs><circle class="cls-1" cx="150.81" cy="114.96" r="114.96"/><path class="cls-2" d="M393.56,269c0-.33,0-.66,0-1a32.48,32.48,0,0,0-32.48-32.48,32.87,32.87,0,0,0-6.07.58,76.13,76.13,0,0,0-142.57,8.86,81.86,81.86,0,0,0-104.18,102.4,14.48,14.48,0,0,0-12.62,19,75.81,75.81,0,0,0-35.32,16.27H440.53a76.14,76.14,0,0,0-47-113.61Z" transform="translate(-60.34 -129.43)"/></svg>