<?xml version="1.0" encoding="utf-8"?>
<!-- Generator: Adobe Illustrator 25.2.1, SVG Export Plug-In . SVG Version: 6.00 Build 0)  -->
<svg version="1.1" id="레이어_1" xmlns="http://www.w3.org/2000/svg" xmlns:xlink="http://www.w3.org/1999/xlink" x="0px"
	 y="0px" viewBox="0 0 391.4 249.8" style="enable-background:new 0 0 391.4 249.8;" xml:space="preserve">
<style type="text/css">
	.st0{fill:#FFFFFF;}
	.st1{fill:#EBE7B8;}
</style>
<path class="st0" d="M333.2,136.1v-1c0-17.9-14.5-32.5-32.5-32.5l0,0l0,0c-2,0-4.1,0.2-6.1,0.6c-17-38.5-61.9-55.9-100.4-38.9
	c-20.4,9-35.8,26.4-42.2,47.8c-42.8-14.5-89.3,8.5-103.7,51.4c-5.6,16.5-5.7,34.4-0.4,51C40,215.1,34,222,34.6,230
	c0.1,1.2,0.3,2.4,0.7,3.5c-13,2.3-25.2,7.9-35.3,16.3h380.2c21.9-35.9,10.6-82.7-25.3-104.6C348.2,141,340.9,138,333.2,136.1
	L333.2,136.1z"/>
<path class="st1" d="M243.5,164.1h-1.1c-61.6,0-111.6-50-111.6-111.6c0-17.7,4.2-35.1,12.3-50.9c0-0.1,0.1-0.1,0.1-0.2
	c0.7-1.2-0.4-1.4-1-1.4C83,2.8,36.3,51.4,35.9,110.7C35.5,172,85.1,222.5,146.4,223.1c40.9,0.4,78.8-21.7,98.7-57.5
	C246,163.9,243.5,164.1,243.5,164.1z"/>
<path class="st0" d="M176.8,196.9v-0.3c0-5.8-4.7-10.6-10.6-10.6l0,0l0,0c-0.7,0-1.3,0.1-2,0.2c-5.6-12.5-20.2-18.1-32.7-12.6
	c-6.6,2.9-11.6,8.6-13.7,15.5c-13.9-4.7-29.1,2.8-33.8,16.7c-1.8,5.4-1.9,11.2-0.1,16.6c-2.6,0.2-4.5,2.5-4.3,5
	c0,0.4,0.1,0.8,0.2,1.1c-4.2,0.7-8.2,2.6-11.5,5.3H192c7.1-11.7,3.4-26.9-8.2-34.1C181.6,198.5,179.2,197.5,176.8,196.9L176.8,196.9
	z"/>
</svg>
