<svg id="레이어_1" data-name="레이어 1" xmlns="http://www.w3.org/2000/svg" viewBox="0 0 310.7 277.81"><defs><style>.cls-1{fill:#ccc;}</style></defs><path class="cls-1" d="M399.66,225.31a68.89,68.89,0,0,0-67.8-80.07h-1.5a68.73,68.73,0,0,0-135.73,4.49A68.72,68.72,0,0,0,138.75,256H438.27A52.12,52.12,0,0,0,399.66,225.31Z" transform="translate(-127.57 -89.37)"/><path class="cls-1" d="M402.4,293.06H160.31a10,10,0,0,1,0-20H402.4a10,10,0,0,1,0,20Z" transform="translate(-127.57 -89.37)"/><path class="cls-1" d="M270.89,367.18H168.46a10,10,0,1,1,0-20H270.89a10,10,0,0,1,0,20Z" transform="translate(-127.57 -89.37)"/><path class="cls-1" d="M385.52,367.18H307.05a10,10,0,0,1,0-20h78.47a10,10,0,0,1,0,20Z" transform="translate(-127.57 -89.37)"/><path class="cls-1" d="M352.49,330.12H143a10,10,0,0,1,0-20H352.49a10,10,0,0,1,0,20Z" transform="translate(-127.57 -89.37)"/></svg>