<svg id="레이어_1" data-name="레이어 1" xmlns="http://www.w3.org/2000/svg" viewBox="0 0 485.46 312.41"><defs><style>.cls-1{fill:#ffd0d0;}.cls-2{fill:#fff;}</style></defs><path class="cls-1" d="M397.08,288.25c-7.28,25.21-43,25.21-50.28,0L332,236.85l-30.33-105a26.17,26.17,0,0,1,25.14-33.42H417.1a26.17,26.17,0,0,1,25.14,33.42l-30.33,105Z" transform="translate(-13.27 -98.38)"/><circle class="cls-1" cx="358.67" cy="280.72" r="31.68"/><path class="cls-2" d="M312.21,319.51a67.66,67.66,0,0,1-3.84-10.17L265.31,160.18c-3.07-.29-6.17-.45-9.31-.45a95.88,95.88,0,0,0-35.11,6.61,37.27,37.27,0,1,1-52.81,50.39A96.27,96.27,0,0,0,302.83,340.1,71.52,71.52,0,0,1,312.21,319.51Z" transform="translate(-13.27 -98.38)"/><path class="cls-2" d="M301.64,373.14A171.33,171.33,0,0,1,256,379.55c-60.24,0-115.29-35.52-150.86-65.32A459,459,0,0,1,47.4,256a459,459,0,0,1,57.74-58.23C140.71,168,195.76,132.45,256,132.45c1.53,0,3.06,0,4.59.08a65.33,65.33,0,0,1,8.06-29.64c-4.24-.28-8.45-.44-12.65-.44-30.94,0-62.94,7.77-95.1,23.11-25.25,12-50.68,28.75-75.58,49.68-42.1,35.38-68,70.4-69.13,71.87a15,15,0,0,0,0,17.78c1.08,1.47,27,36.49,69.13,71.87,24.9,20.93,50.33,37.64,75.58,49.68,32.16,15.34,64.16,23.11,95.1,23.11a203.49,203.49,0,0,0,57.73-8.68A71.32,71.32,0,0,1,301.64,373.14Z" transform="translate(-13.27 -98.38)"/><path class="cls-2" d="M495.81,247.11c-.71-1-12.1-16.34-31.72-36.78L454.36,244c4.1,4.62,7.54,8.68,10.24,12-4.67,5.65-11.55,13.64-20.3,22.86l-8.79,30.48a68.92,68.92,0,0,1-3.85,10.18,71.58,71.58,0,0,1,4.94,8.65c36.21-32.25,58.22-61.93,59.21-63.28A15,15,0,0,0,495.81,247.11Z" transform="translate(-13.27 -98.38)"/></svg>