<?xml version="1.0" encoding="utf-8"?>
<!-- Generator: Adobe Illustrator 25.2.1, SVG Export Plug-In . SVG Version: 6.00 Build 0)  -->
<svg version="1.1" id="레이어_1" xmlns="http://www.w3.org/2000/svg" xmlns:xlink="http://www.w3.org/1999/xlink" x="0px"
	 y="0px" viewBox="0 0 347.1 316" style="enable-background:new 0 0 347.1 316;" xml:space="preserve">
<style type="text/css">
	.st0{fill:#666666;}
	.st1{fill:none;stroke:#A2DBFF;stroke-width:25;stroke-linecap:round;stroke-miterlimit:10;}
</style>
<path class="st0" d="M0,196.9h341.3c18.2-50.7-8.1-106.6-58.8-124.8c-0.4-0.1-0.8-0.3-1.2-0.4c-7.6-46.5-51.4-78.1-97.9-70.5
	c-33.3,5.4-60.3,29.9-68.8,62.5C95.3,69.9,81,86.3,77.4,106.3c-26.7,15.1-43.2,43.5-43.2,74.2c0,0.9,0,1.8,0.1,2.6
	C21.6,183.9,9.6,188.7,0,196.9z"/>
<line class="st1" x1="298.3" y1="198.5" x2="264.6" y2="303.5"/>
<line class="st1" x1="243.4" y1="157.9" x2="224.2" y2="217.1"/>
<line class="st1" x1="212.2" y1="253.9" x2="196.2" y2="303.5"/>
<line class="st1" x1="134.4" y1="283.6" x2="128.3" y2="303.5"/>
<line class="st1" x1="166.6" y1="184.5" x2="145.4" y2="249.7"/>
<line class="st1" x1="103.1" y1="170.1" x2="92.5" y2="202.8"/>
<line class="st1" x1="80" y1="241.1" x2="60.1" y2="303.5"/>
</svg>
