<svg id="레이어_1" data-name="레이어 1" xmlns="http://www.w3.org/2000/svg" viewBox="0 0 414.46 475.48"><defs><style>.cls-1{fill:none;stroke:#fff;stroke-linecap:round;stroke-miterlimit:10;stroke-width:20px;}</style></defs><line class="cls-1" x1="207.23" y1="10" x2="207.23" y2="237.74"/><line class="cls-1" x1="207.23" y1="98.51" x2="158.02" y2="49.3"/><line class="cls-1" x1="207.23" y1="98.51" x2="256.44" y2="49.3"/><line class="cls-1" x1="207.73" y1="200.52" x2="158.52" y2="151.31"/><line class="cls-1" x1="207.73" y1="200.52" x2="256.94" y2="151.31"/><line class="cls-1" x1="10" y1="123.87" x2="207.23" y2="237.74"/><line class="cls-1" x1="86.65" y1="168.13" x2="19.43" y2="186.14"/><line class="cls-1" x1="86.65" y1="168.13" x2="68.64" y2="100.9"/><line class="cls-1" x1="175.24" y1="218.7" x2="108.02" y2="236.71"/><line class="cls-1" x1="175.24" y1="218.7" x2="157.23" y2="151.47"/><line class="cls-1" x1="10" y1="351.61" x2="207.23" y2="237.74"/><line class="cls-1" x1="86.65" y1="307.35" x2="68.64" y2="374.58"/><line class="cls-1" x1="86.65" y1="307.35" x2="19.43" y2="289.34"/><line class="cls-1" x1="174.74" y1="255.92" x2="156.73" y2="323.14"/><line class="cls-1" x1="174.74" y1="255.92" x2="107.52" y2="237.91"/><line class="cls-1" x1="207.23" y1="465.48" x2="207.23" y2="237.74"/><line class="cls-1" x1="207.23" y1="376.97" x2="256.44" y2="426.18"/><line class="cls-1" x1="207.23" y1="376.97" x2="158.02" y2="426.18"/><line class="cls-1" x1="206.73" y1="274.96" x2="255.94" y2="324.17"/><line class="cls-1" x1="206.73" y1="274.96" x2="157.52" y2="324.17"/><line class="cls-1" x1="404.46" y1="351.61" x2="207.23" y2="237.74"/><line class="cls-1" x1="327.8" y1="307.35" x2="395.03" y2="289.34"/><line class="cls-1" x1="327.8" y1="307.35" x2="345.82" y2="374.58"/><line class="cls-1" x1="239.21" y1="256.78" x2="306.44" y2="238.77"/><line class="cls-1" x1="239.21" y1="256.78" x2="257.23" y2="324.01"/><line class="cls-1" x1="404.46" y1="123.87" x2="207.23" y2="237.74"/><line class="cls-1" x1="327.8" y1="168.13" x2="345.82" y2="100.9"/><line class="cls-1" x1="327.8" y1="168.13" x2="395.03" y2="186.14"/><line class="cls-1" x1="239.71" y1="219.56" x2="257.73" y2="152.34"/><line class="cls-1" x1="239.71" y1="219.56" x2="306.94" y2="237.57"/></svg>