<svg id="레이어_1" data-name="레이어 1" xmlns="http://www.w3.org/2000/svg" viewBox="0 0 253.78 95.11"><defs><style>.cls-1{fill:#ffd7c8;}.cls-2{fill:#d6e3ff;}.cls-3{fill:#fff;}</style></defs><path class="cls-1" d="M175.26,207.33H129a54.59,54.59,0,0,0-29.12,65.11L101,276H203.31l1.07-3.56a54.54,54.54,0,0,0-29.12-65.11ZM195.71,266H108.55a44.56,44.56,0,1,1,87.16,0Z" transform="translate(-42 -207.33)"/><path class="cls-2" d="M254.27,289.22H165.89a5,5,0,0,1,0-10h88.38a5,5,0,0,1,0,10Z" transform="translate(-42 -207.33)"/><path class="cls-3" d="M121.54,263.23a12.55,12.55,0,0,0-10.63-12.4,16.7,16.7,0,0,0-31.21,8,11.8,11.8,0,0,0-6.92,10.74h47A12.47,12.47,0,0,0,121.54,263.23Z" transform="translate(-42 -207.33)"/><path class="cls-3" d="M174.84,239.62a12.57,12.57,0,0,1,10.63-12.41,16.7,16.7,0,0,1,31.21,8A11.8,11.8,0,0,1,223.6,246h-47A12.47,12.47,0,0,1,174.84,239.62Z" transform="translate(-42 -207.33)"/><path class="cls-2" d="M204.69,302.44H68.2a5,5,0,1,1,0-10H204.69a5,5,0,0,1,0,10Z" transform="translate(-42 -207.33)"/><path class="cls-2" d="M290.78,266H42v10H290.78a5,5,0,0,0,0-10Z" transform="translate(-42 -207.33)"/></svg>