<svg id="레이어_1" data-name="레이어 1" xmlns="http://www.w3.org/2000/svg" viewBox="0 0 223.83 78.67"><defs><style>.cls-1{fill:#fff;}.cls-2{fill:#ffd7c8;}.cls-3{fill:#ceffc0;}</style></defs><path class="cls-1" d="M90.53,263a12.56,12.56,0,0,0-10.62-12.41,16.7,16.7,0,0,0-31.21,8,11.8,11.8,0,0,0-6.92,10.74h47A12.46,12.46,0,0,0,90.53,263Z" transform="translate(-41.78 -225.99)"/><path class="cls-2" d="M184.41,247.67a59.66,59.66,0,0,0-104.33,25.4,5,5,0,0,0,1.53,4.76l29.74,26.84h27l45.95-50.45A5,5,0,0,0,184.41,247.67Zm-59,56.25-7-6.28-28-25.23a49.67,49.67,0,0,1,83.28-21.58Z" transform="translate(-41.78 -225.99)"/><path class="cls-3" d="M198.89,231.41a5,5,0,0,0-7.39,0l-66,72.51L83.14,265.73a5,5,0,0,0-6.7,0L42,296.81v7.86h6.22l31.57-28.49,31.56,28.49h27l56.89-62.47,56.9,62.47h13.52Z" transform="translate(-41.78 -225.99)"/><path class="cls-1" d="M149.36,273.18a13.65,13.65,0,0,1,11.54-13.47,18.14,18.14,0,0,1,33.91,8.74,12.83,12.83,0,0,1,7.52,11.67H151.27A13.53,13.53,0,0,1,149.36,273.18Z" transform="translate(-41.78 -225.99)"/></svg>