<svg id="레이어_1" data-name="레이어 1" xmlns="http://www.w3.org/2000/svg" viewBox="0 0 409.79 358.66"><defs><style>.cls-1,.cls-2{fill:none;stroke:#fff;stroke-linejoin:round;stroke-width:40px;}.cls-2{stroke-linecap:round;}</style></defs><path class="cls-1" d="M403.7,333.57a89.52,89.52,0,0,0-55.31-25.94h0A126.19,126.19,0,0,0,222.15,181.39h0a89.85,89.85,0,0,0-81.25-81.25h0c80.83-46.35,185.71-35,254.75,34s80.37,173.92,34,254.75h0A89.52,89.52,0,0,0,403.7,333.57Z" transform="translate(-67.79 -52.19)"/><line class="cls-2" x1="243.62" y1="166.16" x2="81.49" y2="328.3"/><path class="cls-2" d="M98.38,329.15a36.15,36.15,0,0,0,51.12,51.12" transform="translate(-67.79 -52.19)"/><path class="cls-1" d="M214.93,314.84" transform="translate(-67.79 -52.19)"/><path class="cls-1" d="M222.14,181.38h0c70.63-55.55,142.44-76.56,172.62-46.37s9.18,102-46.37,172.62h0" transform="translate(-67.79 -52.19)"/><line class="cls-2" x1="351.69" y1="58.09" x2="326.97" y2="82.82"/></svg>