<?xml version="1.0" encoding="utf-8"?>
<!-- Generator: Adobe Illustrator 25.2.1, SVG Export Plug-In . SVG Version: 6.00 Build 0)  -->
<svg version="1.1" id="레이어_1" xmlns="http://www.w3.org/2000/svg" xmlns:xlink="http://www.w3.org/1999/xlink" x="0px"
	 y="0px" viewBox="0 0 472.8 423" style="enable-background:new 0 0 472.8 423;" xml:space="preserve">
<style type="text/css">
	.st0{fill:none;stroke:#FFFFFF;stroke-width:25;stroke-linecap:round;stroke-miterlimit:10;}
	.st1{fill:none;stroke:#FFFFFF;stroke-width:40;stroke-linecap:round;stroke-miterlimit:10;}
	.st2{fill:none;stroke:#FFFFFF;stroke-width:30;stroke-linecap:round;stroke-miterlimit:10;}
	.st3{fill:none;stroke:#FFFFFF;stroke-width:35;stroke-linecap:round;stroke-miterlimit:10;}
</style>
<line class="st0" x1="63.6" y1="138.5" x2="200.8" y2="138.5"/>
<line class="st1" x1="20" y1="200.1" x2="350.4" y2="200.2"/>
<line class="st2" x1="125.4" y1="261.7" x2="265" y2="261.7"/>
<line class="st3" x1="47" y1="313.3" x2="157.9" y2="313.3"/>
<path class="st0" d="M201.6,138.5c33.3,0,60.3-27,60.3-60.3c0-26.6-21.6-48.2-48.2-48.2l0,0c-21.3,0-38.6,17.3-38.6,38.6l0,0
	c0,17.1,13.8,30.9,30.9,30.9c13.6,0,24.7-11.1,24.7-24.7c0,0,0,0,0,0"/>
<path class="st1" d="M352.7,200.2c55.3,0,100.1-44.8,100.1-100.1v0c0-44.2-35.9-80.1-80.1-80.1c0,0,0,0,0,0
	c-35.4,0-64.1,28.7-64.1,64c0,0,0,0,0,0c0,28.3,22.9,51.3,51.2,51.3c0,0,0,0,0,0c22.6,0,41-18.4,41-41"/>
<path class="st2" d="M264.5,261.7c44.9,0,81.3,36.4,81.3,81.3l0,0c0,35.9-29.1,65-65,65c-28.7,0-52-23.3-52-52
	c0-23,18.6-41.6,41.6-41.6c18.4,0,29.3,14.9,29.3,33.3"/>
</svg>
